<svg xmlns="http://www.w3.org/2000/svg" viewBox="0 0 3056.99 56.85"><defs><style>.a{fill:#790000;}</style></defs><title>wave</title><path class="a" d="M2488.49,744.76c-40.44,0-60.16,8.8-81,18.12-21.78,9.72-44.3,19.77-88.78,19.77s-67-10-88.78-19.77c-20.89-9.32-40.61-18.12-81.05-18.12s-60.17,8.8-81.06,18.12c-21.78,9.72-44.3,19.77-88.78,19.77s-67-10-88.78-19.77c-20.88-9.32-40.61-18.12-81-18.12s-60.17,8.8-81.06,18.12c-21.78,9.72-44.3,19.77-88.77,19.77s-67-10-88.78-19.77c-20.89-9.32-40.62-18.12-81.06-18.12s-60.16,8.8-81,18.12c-21.78,9.72-44.3,19.77-88.78,19.77s-67-10-88.78-19.77c-20.88-9.32-40.61-18.12-81.05-18.12s-60.17,8.8-81.06,18.12c-21.78,9.72-44.3,19.77-88.77,19.77s-67-10-88.78-19.77c-20.89-9.32-40.62-18.12-81.06-18.12s-60.17,8.8-81,18.12c-21.78,9.72-44.3,19.77-88.78,19.77s-67-10-88.78-19.77c-20.88-9.32-40.61-18.12-81-18.12s-60.17,8.8-81.06,18.12c-21.78,9.72-44.3,19.77-88.77,19.77s-67-10-88.78-19.77c-20.89-9.32-40.62-18.12-81.06-18.12s-60.16,8.8-81,18.12C8,772.6-14.52,782.65-59,782.65s-67-10-88.78-19.77c-20.88-9.32-40.61-18.12-81.05-18.12s-60.17,8.8-81.06,18.12c-21.78,9.72-44.3,19.77-88.77,19.77s-67-10-88.78-19.77c-20.89-9.32-40.62-18.12-81.05-18.12v-19c44.47,0,67,10.05,88.77,19.77,20.89,9.32,40.62,18.12,81.06,18.12s60.16-8.8,81.05-18.12c21.78-9.72,44.3-19.77,88.78-19.77s67,10.05,88.78,19.77C-119.17,754.9-99.44,763.7-59,763.7s60.17-8.8,81.06-18.12c21.78-9.72,44.3-19.77,88.77-19.77s67,10.05,88.78,19.77c20.89,9.32,40.62,18.12,81.06,18.12s60.16-8.8,81.05-18.12c21.78-9.72,44.3-19.77,88.78-19.77s67,10.05,88.78,19.77c20.88,9.32,40.61,18.12,81.05,18.12s60.17-8.8,81-18.12c21.78-9.72,44.31-19.77,88.78-19.77s67,10.05,88.78,19.77c20.89,9.32,40.62,18.12,81.06,18.12s60.16-8.8,81-18.12c21.78-9.72,44.3-19.77,88.78-19.77s67,10.05,88.78,19.77c20.88,9.32,40.61,18.12,81.05,18.12s60.17-8.8,81.06-18.12c21.78-9.72,44.3-19.77,88.77-19.77s67,10.05,88.78,19.77c20.89,9.32,40.62,18.12,81.06,18.12s60.16-8.8,81.05-18.12c21.78-9.72,44.3-19.77,88.78-19.77s67,10.05,88.78,19.77c20.88,9.32,40.61,18.12,81,18.12s60.17-8.8,81.06-18.12c21.78-9.72,44.3-19.77,88.78-19.77s67,10.05,88.77,19.77c20.89,9.32,40.62,18.12,81.06,18.12s60.17-8.8,81.06-18.12c21.78-9.72,44.3-19.77,88.77-19.77" transform="translate(568.49 -725.81)"/><path class="a" d="M4430.83,865.82" transform="translate(568.49 -725.81)"/></svg>